<svg id="Ebene_1" data-name="Ebene 1" xmlns="http://www.w3.org/2000/svg" viewBox="0 0 45 37.37"><defs><style>.cls-1{fill:#7e7e7e;}</style></defs><path class="cls-1" d="M17.19,19.47a2.61,2.61,0,1,1,2.61-2.61A2.61,2.61,0,0,1,17.19,19.47ZM2.37,4.64,34.44,2.37l.23,3.31H37L36.62,1a1,1,0,0,0-.38-.76A1.33,1.33,0,0,0,35.38,0L1,2.46a1,1,0,0,0-.76.38A1.32,1.32,0,0,0,0,3.69l1.94,27.1a1.13,1.13,0,0,0,1.14,1h.09L6,31.64V29.32l-1.9.14ZM45,9.09V36.24a1.15,1.15,0,0,1-1.14,1.13H9.43a1.15,1.15,0,0,1-1.14-1.13V9.09A1.15,1.15,0,0,1,9.43,8H43.86A1.15,1.15,0,0,1,45,9.09ZM10.56,31.5l8.25-8.19a1.17,1.17,0,0,1,1.61,0L24,26.86l8.05-8a1.17,1.17,0,0,1,1.61,0l9.1,9.09V10.28H10.56ZM29,35.15l-9.43-9.43-9,9.05v.38Zm13.73-4.08-9.9-9.85-7.24,7.25,6.63,6.68v0H42.77Z"/></svg>